# xmcd
#
# Track frame offsets:
#	150
#	16949
#	33821
#	50029
#	66664
#	81303
#	98798
#	116202
#	133135
#	152752
#	170777
#	186512
#	198907
#	221031
#
# Disc length: 3178 seconds
# Revision: 2
# Processed by: cddbd v1.5.2PL0 Copyright (c) Steve Scherf et al.
# Submitted via: dBpowerAMP V12.0
#
DISCID=d50c680e
DTITLE=Various Artist - NOW That’s What I Call Country, Vol. 10
DYEAR=2017
DGENRE=Country Sampler
TTITLE0=Luke Bryan - Country Girl (Shake It for Me)
TTITLE1=Jason Aldean - Dirt Road Anthem
TTITLE2=Sam Hunt - Take Your Time
TTITLE3=Carrie Underwood - Jesus Take the Wheel
TTITLE4=Eric Church - Like a Wrecking Ball
TTITLE5=Lady Antebellum - Need You Now
TTITLE6=Miranda Lambert - The House That Built Me
TTITLE7=Hunter Hayes - Wanted
TTITLE8=Brad Paisley - She's Everything
TTITLE9=Kenny Chesney - Somewhere With You
TTITLE10=Josh Turner - Your Man
TTITLE11=Jake Owen - Barefoot Blue Jean Night
TTITLE12=Darius Rucker - Wagon Wheel
TTITLE13=Cam - Burning House
EXTD=
EXTT0=
EXTT1=
EXTT2=
EXTT3=
EXTT4=
EXTT5=
EXTT6=
EXTT7=
EXTT8=
EXTT9=
EXTT10=
EXTT11=
EXTT12=
EXTT13=
PLAYORDER=
